<svg width="355" height="142" version="1.1" xmlns="http://www.w3.org/2000/svg" desc="Created with imagetracer.js version 1.2.6" ><path fill="rgb(201,230,223)" stroke="rgb(201,230,223)" stroke-width="1" opacity="1" d="M 149.5 47 Q 151.8 46.3 151 48.5 L 149.5 47 Z " /><path fill="rgb(201,230,223)" stroke="rgb(201,230,223)" stroke-width="1" opacity="1" d="M 91.5 50 L 92 93.5 L 93 94.5 L 91 93.5 L 91.5 50 Z " /><path fill="rgb(201,230,223)" stroke="rgb(201,230,223)" stroke-width="1" opacity="1" d="M 219.5 57 L 220.5 59 L 219.5 57 Z " /><path fill="rgb(201,230,223)" stroke="rgb(201,230,223)" stroke-width="1" opacity="1" d="M 185.5 58 L 186.5 60 L 185.5 58 Z " /><path fill="rgb(201,230,223)" stroke="rgb(201,230,223)" stroke-width="1" opacity="1" d="M 121.5 59 L 121 60.5 L 121 104.5 L 119.5 105 L 120 103.5 L 120 60.5 L 121.5 59 Z " /><path fill="rgb(201,230,223)" stroke="rgb(201,230,223)" stroke-width="1" opacity="1" d="M 237.5 59 L 236.5 61 L 237.5 59 Z " /><path fill="rgb(201,230,223)" stroke="rgb(201,230,223)" stroke-width="1" opacity="1" d="M 259.5 59 L 260.5 61 L 259.5 59 Z " /><path fill="rgb(201,230,223)" stroke="rgb(201,230,223)" stroke-width="1" opacity="1" d="M 174.5 60 L 178 60.5 L 174.5 61 L 174.5 60 Z " /><path fill="rgb(201,230,223)" stroke="rgb(201,230,223)" stroke-width="1" opacity="1" d="M 210.5 60 L 213 60.5 L 210.5 61 L 210.5 60 Z " /><path fill="rgb(201,230,223)" stroke="rgb(201,230,223)" stroke-width="1" opacity="1" d="M 222.5 60 L 223.5 62 L 222.5 60 Z " /><path fill="rgb(201,230,223)" stroke="rgb(201,230,223)" stroke-width="1" opacity="1" d="M 246.5 60 L 251 60.5 L 246.5 61 L 246.5 60 Z " /><path fill="rgb(201,230,223)" stroke="rgb(201,230,223)" stroke-width="1" opacity="1" d="M 180.5 61 L 182.5 64 L 180.5 61 Z " /><path fill="rgb(201,230,223)" stroke="rgb(201,230,223)" stroke-width="1" opacity="1" d="M 253.5 61 L 254.5 63 L 253.5 61 Z " /><path fill="rgb(201,230,223)" stroke="rgb(201,230,223)" stroke-width="1" opacity="1" d="M 122.5 62 L 123 84.5 L 124 85.5 L 122 84.5 L 122.5 62 Z " /><path fill="rgb(201,230,223)" stroke="rgb(201,230,223)" stroke-width="1" opacity="1" d="M 205.5 62 L 203.5 65 L 205.5 62 Z " /><path fill="rgb(201,230,223)" stroke="rgb(201,230,223)" stroke-width="1" opacity="1" d="M 217.5 62 L 218.5 64 L 217.5 62 Z " /><path fill="rgb(201,230,223)" stroke="rgb(201,230,223)" stroke-width="1" opacity="1" d="M 189.5 67 L 190 88.5 L 189 88.5 L 189.5 67 Z " /><path fill="rgb(201,230,223)" stroke="rgb(201,230,223)" stroke-width="1" opacity="1" d="M 220.5 67 L 221 70 L 202 69.5 L 220 69 L 220.5 67 Z " /><path fill="rgb(201,230,223)" stroke="rgb(201,230,223)" stroke-width="1" opacity="1" d="M 196.5 68 L 197 70.5 L 196 70.5 L 196.5 68 Z " /><path fill="rgb(201,230,223)" stroke="rgb(201,230,223)" stroke-width="1" opacity="1" d="M 166.5 69 L 167 88.5 L 166 88.5 L 166.5 69 Z " /><path fill="rgb(201,230,223)" stroke="rgb(201,230,223)" stroke-width="1" opacity="1" d="M 238.5 69 L 239 75.5 L 238 75.5 L 238.5 69 Z " /><path fill="rgb(201,230,223)" stroke="rgb(201,230,223)" stroke-width="1" opacity="1" d="M 258.5 69 L 259 75.5 L 258 75.5 L 258.5 69 Z " /><path fill="rgb(201,230,223)" stroke="rgb(201,230,223)" stroke-width="1" opacity="1" d="M 196.5 73 L 197 76.5 L 196 76.5 L 196.5 73 Z " /><path fill="rgb(201,230,223)" stroke="rgb(201,230,223)" stroke-width="1" opacity="1" d="M 202.5 74 L 226 74.5 L 202.5 75 L 202.5 74 Z " /><path fill="rgb(201,230,223)" stroke="rgb(201,230,223)" stroke-width="1" opacity="1" d="M 204.5 81 L 205.5 83 L 204.5 81 Z " /><path fill="rgb(201,230,223)" stroke="rgb(201,230,223)" stroke-width="1" opacity="1" d="M 198.5 82 L 199.5 84 L 198.5 82 Z " /><path fill="rgb(201,230,223)" stroke="rgb(201,230,223)" stroke-width="1" opacity="1" d="M 210.5 84 L 213 84.5 L 210.5 85 L 210.5 84 Z " /><path fill="rgb(201,230,223)" stroke="rgb(201,230,223)" stroke-width="1" opacity="1" d="M 236.5 84 L 237.5 86 L 236.5 84 Z " /><path fill="rgb(201,230,223)" stroke="rgb(201,230,223)" stroke-width="1" opacity="1" d="M 246.5 84 L 251 84.5 L 246.5 85 L 246.5 84 Z " /><path fill="rgb(201,230,223)" stroke="rgb(201,230,223)" stroke-width="1" opacity="1" d="M 210.5 89 L 213 89.5 L 210.5 90 L 210.5 89 Z " /><path fill="rgb(201,230,223)" stroke="rgb(201,230,223)" stroke-width="1" opacity="1" d="M 247.5 89 L 250 89.5 L 247.5 90 L 247.5 89 Z " /><path fill="rgb(255,255,255)" stroke="rgb(255,255,255)" stroke-width="1" opacity="1" d="M 0 0 L 355 0 L 355 142 L 0 142 L 0 0 Z M 122 38 L 93 49 L 91 51 L 91 94 L 95 96 L 120 105 L 121 105 L 121 61 L 150 49 Q 152 50 151 47 Q 137 44 126 38 L 122 38 Z M 152 50 L 125 60 L 122 63 L 122 85 L 126 87 L 152 96 L 152 50 Z M 177 55 L 170 57 L 167 60 L 163 58 L 161 58 L 161 89 L 162 89 L 167 89 L 167 68 L 169 64 Q 172 60 180 61 L 183 65 L 184 69 L 184 89 L 185 89 L 190 89 L 190 68 L 187 60 L 182 56 L 177 55 Z M 212 55 L 204 57 Q 197 60 196 69 Q 195 78 198 83 L 206 89 L 211 90 L 221 88 L 225 84 L 225 81 L 223 80 Q 219 79 220 82 L 217 84 Q 210 85 207 83 L 202 77 L 203 75 L 226 75 Q 228 66 224 62 L 220 57 L 212 55 Z M 249 55 Q 247 57 243 56 L 238 59 L 233 67 Q 231 79 236 85 L 243 89 L 248 90 L 255 89 L 260 86 L 264 79 Q 266 66 261 61 L 255 56 Q 250 57 249 55 Z " /><path fill="rgb(255,255,255)" stroke="rgb(255,255,255)" stroke-width="1" opacity="1" d="M 208.5 61 Q 216.8 59.7 219 64.5 L 220 69 L 202.5 69 L 202 67.5 L 206.5 62 L 208.5 61 Z " /><path fill="rgb(255,255,255)" stroke="rgb(255,255,255)" stroke-width="1" opacity="1" d="M 244.5 61 L 252.5 61 L 256 63 Q 259.4 67.2 258 77.5 L 256 82 L 252.5 84 L 244.5 84 L 241 81.5 L 239 78.5 L 239 67.5 L 242.5 62 L 244.5 61 Z " /><path fill="rgb(4,228,153)" stroke="rgb(4,228,153)" stroke-width="1" opacity="1" d="M 123.5 38 L 146.5 46 L 150 48.5 L 123.5 58 L 120 60.5 L 120 103.5 L 118.5 104 L 92 93.5 L 92 49.5 L 94.5 49 L 123.5 38 Z " /><path fill="rgb(8,8,56)" stroke="rgb(8,8,56)" stroke-width="1" opacity="1" d="M 161 58 L 163 58.5 L 162 59.5 L 161.5 88 L 161 58 Z " /><path fill="rgb(8,8,56)" stroke="rgb(8,8,56)" stroke-width="1" opacity="1" d="M 165.5 59 L 167 61.5 L 165 60.5 L 165.5 59 Z " /><path fill="rgb(8,8,56)" stroke="rgb(8,8,56)" stroke-width="1" opacity="1" d="M 201.5 59 L 200.5 61 L 201.5 59 Z " /><path fill="rgb(8,8,56)" stroke="rgb(8,8,56)" stroke-width="1" opacity="1" d="M 258.5 59 L 260.5 62 L 258.5 59 Z " /><path fill="rgb(8,8,56)" stroke="rgb(8,8,56)" stroke-width="1" opacity="1" d="M 170.5 61 L 168.5 64 L 170.5 61 Z " /><path fill="rgb(8,8,56)" stroke="rgb(8,8,56)" stroke-width="1" opacity="1" d="M 255.5 62 L 256.5 64 L 255.5 62 Z " /><path fill="rgb(8,8,56)" stroke="rgb(8,8,56)" stroke-width="1" opacity="1" d="M 184.5 67 L 185 87.5 L 184 87.5 L 184.5 67 Z " /><path fill="rgb(8,8,56)" stroke="rgb(8,8,56)" stroke-width="1" opacity="1" d="M 225.5 68 L 226 73.5 L 225 73.5 L 225.5 68 Z " /><path fill="rgb(8,8,56)" stroke="rgb(8,8,56)" stroke-width="1" opacity="1" d="M 221.5 80 L 219.5 83 L 221.5 80 Z " /><path fill="rgb(8,8,56)" stroke="rgb(8,8,56)" stroke-width="1" opacity="1" d="M 240.5 81 L 241.5 83 L 240.5 81 Z " /><path fill="rgb(8,8,56)" stroke="rgb(8,8,56)" stroke-width="1" opacity="1" d="M 256.5 81 L 255.5 83 L 256.5 81 Z " /><path fill="rgb(8,8,56)" stroke="rgb(8,8,56)" stroke-width="1" opacity="1" d="M 260.5 83 L 258.5 86 L 260.5 83 Z " /><path fill="rgb(8,8,56)" stroke="rgb(8,8,56)" stroke-width="1" opacity="1" d="M 238.5 85 L 239.5 87 L 238.5 85 Z " /><path fill="rgb(18,170,146)" stroke="rgb(18,170,146)" stroke-width="1" opacity="1" d="M 150.5 51 L 152 51.5 L 152 95 L 129.5 88 L 123 84.5 L 123 61.5 L 125.5 61 L 150.5 51 Z " /><path fill="rgb(18,170,146)" stroke="rgb(18,170,146)" stroke-width="1" opacity="1" d="M 168.5 58 L 167.5 60 L 168.5 58 Z " /><path fill="rgb(18,170,146)" stroke="rgb(18,170,146)" stroke-width="1" opacity="1" d="M 200.5 84 L 201.5 86 L 200.5 84 Z " /><path fill="rgb(18,170,146)" stroke="rgb(18,170,146)" stroke-width="1" opacity="1" d="M 223.5 84 L 221.5 87 L 223.5 84 Z " /><path fill="rgb(18,170,146)" stroke="rgb(18,170,146)" stroke-width="1" opacity="1" d="M 161.5 88 L 166 88.5 L 161.5 89 L 161.5 88 Z " /><path fill="rgb(18,170,146)" stroke="rgb(18,170,146)" stroke-width="1" opacity="1" d="M 184.5 88 L 189 88.5 L 184.5 89 L 184.5 88 Z " /><path fill="rgb(0,0,37)" stroke="rgb(0,0,37)" stroke-width="1" opacity="1" d="M 174.5 56 L 178.5 56 L 186 59 L 189 65.5 L 189 88 L 185 87.5 L 185 67.5 L 179.5 60 Q 170.5 58.5 168 63.5 L 166 67.5 L 166 88 L 162 87.5 L 162 59 Q 165.8 57.5 165 60.5 L 167 61.5 L 169.5 58 L 174.5 56 Z " /><path fill="rgb(0,0,37)" stroke="rgb(0,0,37)" stroke-width="1" opacity="1" d="M 209.5 56 Q 219.5 55.5 223 61.5 Q 226.5 65.7 225 74 L 201.5 74 L 201 76.5 L 206.5 84 L 215.5 85 L 222.5 81 L 225 82.5 L 220.5 87 L 210.5 89 L 203.5 87 L 199 82.5 Q 195.6 77.4 197 67.5 Q 198.5 61 203.5 58 L 209.5 56 Z M 209 60 L 207 61 L 201 69 L 202 70 L 221 70 L 220 65 Q 218 59 209 60 Z " /><path fill="rgb(0,0,37)" stroke="rgb(0,0,37)" stroke-width="1" opacity="1" d="M 246.5 56 Q 258.3 55.7 262 63.5 L 264 73.5 L 262 81.5 L 256.5 87 L 246.5 89 L 237 85 Q 233.2 80 233 70.5 L 235 63.5 L 238.5 59 L 246.5 56 Z M 245 60 L 243 61 L 238 68 Q 236 77 240 82 L 246 85 Q 253 86 256 83 L 259 78 Q 261 68 257 64 Q 254 58 245 60 Z " /></svg>